<svg width="20" height="20" viewBox="0 0 20 20" fill="none" xmlns="http://www.w3.org/2000/svg">
<mask id="mask0_331_332" style="mask-type:alpha" maskUnits="userSpaceOnUse" x="0" y="0" width="20" height="20">
<rect width="20" height="20" fill="#D9D9D9"/>
</mask>
<g mask="url(#mask0_331_332)">
<path d="M7.64008 6.46446L9.9971 4.10743C10.8122 3.2923 11.7943 2.88473 12.9434 2.88473C14.0924 2.88473 15.0745 3.2923 15.8897 4.10743C16.7048 4.92257 17.1124 5.90466 17.1124 7.05371C17.1124 8.20276 16.7048 9.18485 15.8897 9.99999L13.5326 12.357L12.3541 11.1785L14.7111 8.82148C15.2022 8.33043 15.4477 7.74118 15.4477 7.05371C15.4477 6.36625 15.2022 5.77699 14.7111 5.28594C14.2201 4.7949 13.6308 4.54937 12.9434 4.54937C12.2559 4.54937 11.6667 4.7949 11.1756 5.28594L8.81859 7.64297L7.64008 6.46446ZM11.7649 7.05371L12.9434 8.23222L8.22934 12.9463L7.05083 11.7678L11.7649 7.05371ZM6.46157 7.64297L7.64008 8.82148L5.28306 11.1785C4.79201 11.6695 4.54649 12.2588 4.54649 12.9463C4.54649 13.6337 4.79201 14.223 5.28306 14.714C5.77411 15.2051 6.36336 15.4506 7.05083 15.4506C7.73829 15.4506 8.32755 15.2051 8.81859 14.714L11.1756 12.357L12.3541 13.5355L9.9971 15.8925C9.18197 16.7077 8.19987 17.1152 7.05083 17.1152C5.90178 17.1152 4.91969 16.7077 4.10455 15.8925C3.28941 15.0774 2.88184 14.0953 2.88184 12.9463C2.88184 11.7972 3.28941 10.8151 4.10455 9.99999L6.46157 7.64297Z" fill="#0050A0"/>
</g>
</svg>
