<svg width="80" height="80" viewBox="0 0 80 80" fill="none" xmlns="http://www.w3.org/2000/svg">
<path d="M39.9997 71.6666C35.6191 71.6666 31.5024 70.8352 27.6497 69.1724C23.7969 67.5102 20.4455 65.2541 17.5955 62.4041C14.7455 59.5541 12.4894 56.2027 10.8272 52.3499C9.1644 48.4971 8.33301 44.3805 8.33301 39.9999H13.333C13.333 46.6666 15.5019 52.4871 19.8397 57.4616C24.1769 62.436 29.6447 65.4019 36.243 66.3591L31.218 61.3332L34.7305 57.8207L47.5255 70.6149C46.2988 70.9999 45.053 71.2713 43.788 71.4291C42.523 71.5874 41.2602 71.6666 39.9997 71.6666ZM42.1788 49.4874V30.5124H51.7947C52.7391 30.5124 53.5308 30.8319 54.1697 31.4708C54.8086 32.1096 55.128 32.9013 55.128 33.8458V46.1541C55.128 47.0985 54.8086 47.8902 54.1697 48.5291C53.5308 49.168 52.7391 49.4874 51.7947 49.4874H42.1788ZM24.8713 49.4874V45.5124H33.8455V41.4741H28.2047V38.5257H33.8455V34.4874H24.8713V30.5124H34.9997C35.7986 30.5124 36.4686 30.7827 37.0097 31.3233C37.5502 31.8644 37.8205 32.5344 37.8205 33.3333V46.6666C37.8205 47.4655 37.5502 48.1355 37.0097 48.6766C36.4686 49.2171 35.7986 49.4874 34.9997 49.4874H24.8713ZM46.1538 45.5124H50.7688C50.8972 45.5124 50.9933 45.4805 51.0572 45.4166C51.1216 45.3527 51.1538 45.2566 51.1538 45.1283V34.8716C51.1538 34.7433 51.1216 34.6471 51.0572 34.5833C50.9933 34.5194 50.8972 34.4874 50.7688 34.4874H46.1538V45.5124ZM66.6663 39.9999C66.6663 33.3333 64.4974 27.5127 60.1597 22.5383C55.8224 17.5638 50.3547 14.598 43.7563 13.6408L48.7813 18.6666L45.2688 22.1791L32.4738 9.38492C33.7005 8.99992 34.9463 8.72853 36.2113 8.57075C37.4763 8.41242 38.7391 8.33325 39.9997 8.33325C44.3802 8.33325 48.4969 9.16464 52.3497 10.8274C56.2024 12.4896 59.5538 14.7458 62.4038 17.5958C65.2538 20.4458 67.5099 23.7971 69.1722 27.6499C70.8349 31.5027 71.6663 35.6194 71.6663 39.9999H66.6663Z" fill="#E8EAED"/>
</svg>
