<svg width="80" height="80" viewBox="0 0 80 80" fill="none" xmlns="http://www.w3.org/2000/svg">
<path d="M52.1788 36.6667L39.9997 48.8458L27.8205 36.6667L31.333 33.1542L37.4997 39.2183V24.4875H42.4997V39.2183L48.6663 33.1542L52.1788 36.6667ZM33.718 66.09H46.2813V63.1408H33.718V66.09ZM24.3588 75C22.675 75 21.2497 74.4167 20.083 73.25C18.9163 72.0833 18.333 70.6581 18.333 68.9742V11.0258C18.333 9.34194 18.9163 7.91667 20.083 6.75C21.2497 5.58333 22.675 5 24.3588 5H55.6405C57.3244 5 58.7497 5.58333 59.9163 6.75C61.083 7.91667 61.6663 9.34194 61.6663 11.0258V68.9742C61.6663 70.6581 61.083 72.0833 59.9163 73.25C58.7497 74.4167 57.3244 75 55.6405 75H24.3588ZM23.333 59.2308V68.9742C23.333 69.2308 23.44 69.4658 23.6538 69.6792C23.8672 69.8931 24.1022 70 24.3588 70H55.6405C55.8972 70 56.1322 69.8931 56.3455 69.6792C56.5594 69.4658 56.6663 69.2308 56.6663 68.9742V59.2308H23.333ZM23.333 54.2308H56.6663V19.1667H23.333V54.2308ZM23.333 14.1667H56.6663V11.0258C56.6663 10.7692 56.5594 10.5342 56.3455 10.3208C56.1322 10.1069 55.8972 10 55.6405 10H24.3588C24.1022 10 23.8672 10.1069 23.6538 10.3208C23.44 10.5342 23.333 10.7692 23.333 11.0258V14.1667Z" fill="#E8EAED"/>
</svg>
