<svg width="80" height="80" viewBox="0 0 80 80" fill="none" xmlns="http://www.w3.org/2000/svg">
<path d="M25.4808 58.3333C22.1403 58.3333 19.2806 57.1614 16.9017 54.8175C14.5228 52.4731 13.3333 49.6386 13.3333 46.3142V33.4042C13.3333 30.877 14.1422 28.6597 15.76 26.7525C17.3772 24.8447 19.4358 23.6622 21.9358 23.205C24.9736 22.6295 27.9844 22.2239 30.9683 21.9883C33.9528 21.7528 36.9639 21.635 40.0017 21.635C43.0389 21.635 46.0628 21.7492 49.0733 21.9775C52.0844 22.2064 55.0814 22.6156 58.0642 23.205C60.5642 23.6967 62.6228 24.8861 64.24 26.7733C65.8578 28.6606 66.6667 30.8708 66.6667 33.4042V46.3142C66.6667 49.6603 65.4742 52.5 63.0892 54.8333C60.7036 57.1667 57.8364 58.3333 54.4875 58.3333H51.25C50.5989 58.3333 49.9478 58.2864 49.2967 58.1925C48.6461 58.0981 48.0089 57.9333 47.385 57.6983L42.2433 55.9933C41.5128 55.7156 40.765 55.5767 40 55.5767C39.235 55.5767 38.4872 55.7156 37.7567 55.9933L32.5833 57.6983C31.9594 57.9333 31.3219 58.0981 30.6708 58.1925C30.0197 58.2864 29.3689 58.3333 28.7183 58.3333H25.4808ZM25.4808 53.3333H28.7183C29.1294 53.3333 29.5258 53.3003 29.9075 53.2342C30.2897 53.1681 30.6689 53.0795 31.045 52.9683C32.5494 52.4895 34.0244 51.9936 35.47 51.4808C36.9161 50.9681 38.4281 50.7117 40.0058 50.7117C41.5831 50.7117 43.1031 50.9581 44.5658 51.4508C46.0292 51.9436 47.4922 52.4495 48.955 52.9683C49.3311 53.0795 49.7067 53.1681 50.0817 53.2342C50.4567 53.3003 50.8461 53.3333 51.25 53.3333H54.4875C56.4486 53.3333 58.1356 52.6461 59.5483 51.2717C60.9606 49.8967 61.6667 48.2442 61.6667 46.3142V33.4042C61.6667 32.0686 61.235 30.9153 60.3717 29.9442C59.5083 28.9731 58.4292 28.3486 57.1342 28.0708C54.3164 27.4858 51.485 27.1003 48.64 26.9142C45.7944 26.7281 42.9144 26.635 40 26.635C37.0767 26.635 34.2075 26.7411 31.3925 26.9533C28.5769 27.1661 25.7347 27.5386 22.8658 28.0708C21.5708 28.312 20.4917 28.9295 19.6283 29.9233C18.765 30.9178 18.3333 32.0781 18.3333 33.4042V46.3142C18.3333 48.2442 19.0331 49.8967 20.4325 51.2717C21.8325 52.6461 23.5153 53.3333 25.4808 53.3333ZM5 46.3142V33.5575H8.9425V46.3142H5ZM71.0575 46.3142V33.5575H75V46.3142H71.0575Z" fill="#E8EAED"/>
</svg>
