<svg width="120" height="60" viewBox="0 0 120 60" fill="none" xmlns="http://www.w3.org/2000/svg">
<g clip-path="url(#clip0_182_3)">
<path d="M111.613 43.1302C110.659 43.1302 109.796 42.9032 109.025 42.4492C108.268 41.9951 107.678 41.367 107.254 40.5649C106.83 39.7476 106.618 38.8168 106.618 37.7725C106.618 36.7434 106.83 35.8277 107.254 35.0256C107.678 34.2083 108.268 33.5726 109.025 33.1186C109.796 32.6646 110.659 32.4375 111.613 32.4375C112.43 32.4375 113.179 32.6646 113.86 33.1186C114.556 33.5726 115.078 34.1856 115.427 34.9575L115.29 35.0029V27.0344H116.653V42.9713H115.29V40.5649L115.427 40.6103C115.063 41.3973 114.534 42.0178 113.837 42.4719C113.156 42.9108 112.415 43.1302 111.613 43.1302ZM111.658 41.9043C112.309 41.9043 112.907 41.7227 113.452 41.3595C114.011 40.9811 114.458 40.4741 114.791 39.8384C115.124 39.2028 115.29 38.5141 115.29 37.7725C115.29 37.0461 115.124 36.365 114.791 35.7293C114.458 35.0937 114.011 34.5942 113.452 34.231C112.907 33.8526 112.309 33.6634 111.658 33.6634C110.947 33.6634 110.311 33.8375 109.751 34.1856C109.191 34.5337 108.752 35.018 108.434 35.6385C108.132 36.2591 107.98 36.978 107.98 37.7952C107.98 38.5822 108.132 39.2936 108.434 39.9292C108.752 40.5498 109.191 41.0341 109.751 41.3822C110.311 41.7303 110.947 41.9043 111.658 41.9043Z" fill="white"/>
<path d="M101.4 34.844C101.611 34.3748 101.914 33.9586 102.308 33.5954C102.716 33.217 103.17 32.9219 103.67 32.71C104.184 32.4981 104.706 32.3997 105.236 32.4148V33.7543C104.616 33.7391 104.018 33.9056 103.443 34.2537C102.883 34.6018 102.429 35.071 102.081 35.6613C101.732 36.2515 101.558 36.8872 101.558 37.5682V42.9713H100.196V32.5057H101.558V34.8894L101.4 34.844Z" fill="white"/>
<path d="M92.5667 43.1075C91.6284 43.1075 90.7808 42.8805 90.0241 42.4265C89.2825 41.9724 88.6998 41.3443 88.276 40.5422C87.8674 39.74 87.6631 38.8319 87.6631 37.8179C87.6631 36.8039 87.8674 35.8958 88.276 35.0937C88.6998 34.2915 89.2825 33.6634 90.0241 33.2094C90.7808 32.7553 91.6284 32.5283 92.5667 32.5283C93.3084 32.5283 94.0046 32.7402 94.6553 33.164C95.3213 33.5878 95.8586 34.178 96.2672 34.9347L96.131 34.9801V32.5056H97.4931V42.9713H96.131V40.6557L96.2672 40.6784C96.0099 41.1627 95.6845 41.594 95.291 41.9724C94.9126 42.3356 94.4889 42.6156 94.0197 42.8124C93.5656 43.0091 93.0813 43.1075 92.5667 43.1075ZM92.5895 41.8816C93.21 41.8816 93.7927 41.7076 94.3375 41.3595C94.8824 41.0114 95.3213 40.527 95.6542 39.9065C95.9872 39.286 96.1537 38.5898 96.1537 37.8179C96.1537 37.0612 95.9872 36.3725 95.6542 35.752C95.3213 35.1315 94.8824 34.6472 94.3375 34.2991C93.7927 33.9359 93.21 33.7542 92.5895 33.7542C91.8933 33.7542 91.2727 33.9283 90.7279 34.2764C90.1982 34.6245 89.782 35.1088 89.4793 35.7293C89.1766 36.3347 89.0252 37.0309 89.0252 37.8179C89.0252 38.6049 89.1766 39.3087 89.4793 39.9292C89.782 40.5346 90.1982 41.0114 90.7279 41.3595C91.2727 41.7076 91.8933 41.8816 92.5895 41.8816Z" fill="white"/>
<path d="M83.5206 42.9713H82.272L79.6612 34.6169H79.8201L77.2775 42.9713H76.0289L72.8506 32.5056H74.2808L76.7327 40.86H76.5737L79.0256 32.5056H80.4331L82.9757 40.86H82.8168L85.2006 32.5056H86.6308L83.5206 42.9713Z" fill="white"/>
<path d="M65.4085 43.1075C64.4702 43.1075 63.6226 42.8805 62.8659 42.4265C62.1243 41.9724 61.5416 41.3443 61.1178 40.5422C60.7092 39.74 60.5049 38.8319 60.5049 37.8179C60.5049 36.8039 60.7092 35.8958 61.1178 35.0937C61.5416 34.2915 62.1243 33.6634 62.8659 33.2094C63.6226 32.7553 64.4702 32.5283 65.4085 32.5283C66.1501 32.5283 66.8463 32.7402 67.4971 33.164C68.1631 33.5878 68.7004 34.178 69.109 34.9347L68.9728 34.9801V32.5056H70.3349V42.9713H68.9728V40.6557L69.109 40.6784C68.8517 41.1627 68.5263 41.594 68.1328 41.9724C67.7544 42.3356 67.3307 42.6156 66.8615 42.8124C66.4074 43.0091 65.9231 43.1075 65.4085 43.1075ZM65.4312 41.8816C66.0518 41.8816 66.6345 41.7076 67.1793 41.3595C67.7242 41.0114 68.1631 40.527 68.496 39.9065C68.829 39.286 68.9955 38.5898 68.9955 37.8179C68.9955 37.0612 68.829 36.3725 68.496 35.752C68.1631 35.1315 67.7242 34.6472 67.1793 34.2991C66.6345 33.9359 66.0518 33.7542 65.4312 33.7542C64.735 33.7542 64.1145 33.9283 63.5697 34.2764C63.04 34.6245 62.6237 35.1088 62.3211 35.7293C62.0184 36.3347 61.867 37.0309 61.867 37.8179C61.867 38.6049 62.0184 39.3087 62.3211 39.9292C62.6237 40.5346 63.04 41.0114 63.5697 41.3595C64.1145 41.7076 64.735 41.8816 65.4312 41.8816Z" fill="white"/>
<path d="M79.8881 57.5542L83.1913 50.0966H84.0766L80.7735 57.5542H79.8881ZM84.0766 50.0966H79.207V49.3701H83.9631L84.0766 50.0966Z" fill="white"/>
<path d="M77.2878 57.5657H76.4705V50.3124L75.1992 51.1978L74.7451 50.5735L76.4705 49.3816H77.2878V57.5657Z" fill="white"/>
<path d="M70.6692 56.9186C71.0703 56.9186 71.4297 56.771 71.7475 56.4759C72.0654 56.1808 72.3113 55.7721 72.4854 55.25C72.667 54.7278 72.7578 54.1338 72.7578 53.4678C72.7578 52.8019 72.667 52.2079 72.4854 51.6857C72.3113 51.1636 72.0654 50.7587 71.7475 50.4712C71.4297 50.176 71.0703 50.0285 70.6692 50.0285C70.2605 50.0285 69.8973 50.176 69.5795 50.4712C69.2616 50.7587 69.0119 51.1636 68.8303 51.6857C68.6563 52.2079 68.5692 52.8019 68.5692 53.4678C68.5692 54.1338 68.6563 54.7278 68.8303 55.25C69.0119 55.7721 69.2616 56.1808 69.5795 56.4759C69.8973 56.771 70.2605 56.9186 70.6692 56.9186ZM70.6692 57.645C70.1016 57.645 69.5946 57.4672 69.1481 57.1115C68.7092 56.7559 68.3649 56.264 68.1152 55.6359C67.873 55.0002 67.752 54.2776 67.752 53.4678C67.752 52.6657 67.873 51.9506 68.1152 51.3225C68.3649 50.6868 68.7092 50.1912 69.1481 49.8355C69.5946 49.4798 70.1016 49.302 70.6692 49.302C71.2292 49.302 71.7286 49.4798 72.1675 49.8355C72.614 50.1912 72.9583 50.6868 73.2005 51.3225C73.4502 51.9506 73.5751 52.6657 73.5751 53.4678C73.5751 54.2776 73.4502 55.0002 73.2005 55.6359C72.9583 56.264 72.614 56.7559 72.1675 57.1115C71.7286 57.4672 71.2292 57.645 70.6692 57.645Z" fill="white"/>
<path d="M61.4794 56.8506C61.6837 56.6538 61.835 56.51 61.9334 56.4192C62.0318 56.3284 62.1793 56.1884 62.3761 55.9993C63.0572 55.3636 63.6096 54.8301 64.0334 54.3988C64.4571 53.9598 64.8166 53.5134 65.1117 53.0593C65.4144 52.5977 65.5658 52.1777 65.5658 51.7994C65.5658 51.4513 65.4939 51.141 65.3501 50.8686C65.2139 50.5961 65.0209 50.3843 64.7712 50.2329C64.529 50.074 64.249 49.9945 63.9312 49.9945C63.5831 49.9945 63.2463 50.1156 62.921 50.3578C62.6031 50.5924 62.361 50.8951 62.1945 51.2659L61.4453 50.948C61.6572 50.4561 61.9939 50.0551 62.4556 49.7448C62.9247 49.427 63.4166 49.2681 63.9312 49.2681C64.4079 49.2681 64.8317 49.3778 65.2025 49.5972C65.5733 49.8091 65.8609 50.108 66.0652 50.494C66.2771 50.8724 66.383 51.3075 66.383 51.7994C66.383 52.2837 66.2203 52.7907 65.8949 53.3204C65.5695 53.8425 65.1798 54.3382 64.7258 54.8074C64.2793 55.269 63.7042 55.8214 63.0004 56.4646C62.6901 56.7522 62.3799 57.0436 62.0696 57.3387L61.4794 56.8506ZM61.4794 56.8506H66.5192V57.5771H61.5929L61.4794 56.8506Z" fill="white"/>
<mask id="mask0_182_3" style="mask-type:luminance" maskUnits="userSpaceOnUse" x="0" y="-1" width="120" height="61">
<path d="M0 59.998H119.186V-0.00195524H0V59.998Z" fill="white"/>
</mask>
<g mask="url(#mask0_182_3)">
<path d="M73.2476 9.8189H70.1383V17.0102C70.1383 18.8618 69.3785 20.3331 67.1474 20.3331C64.9404 20.3572 64.2998 18.8384 64.2998 16.9159V9.8189H61.1904V17.6991C61.1904 19.977 61.997 23.2289 66.2698 23.2531C68.6194 23.2765 69.7821 22.1371 70.3284 21.117V22.8494H73.2476V9.8189Z" fill="white"/>
<path d="M74.4834 22.8501H77.5928V15.658C77.5928 13.8306 78.3518 12.3593 80.5595 12.3352C82.7431 12.3352 83.3837 13.8306 83.3837 15.7765V22.8501H86.493V14.9933C86.493 12.6913 85.6865 9.43934 81.4378 9.41594C79.1116 9.39254 77.9482 10.5311 77.3792 11.552C77.4026 10.9348 77.4026 10.3893 77.4026 9.8196H74.4834V22.8501Z" fill="white"/>
<path d="M87.6826 22.8501H90.792V9.8196H87.6826V22.8501ZM87.6826 8.06309H90.792V5.28572H87.6826V8.06309Z" fill="white"/>
<path d="M94.0449 22.8501H97.1543V12.2167H99.3854L98.4625 9.8196H97.1543V5.28572H94.0449V9.8196H91.8848V12.2167H94.0449V22.8501Z" fill="white"/>
<path d="M102.389 27.4058H105.712L112.572 9.81798H109.249L106.115 18.4813L102.935 9.81798H99.6123L104.525 22.3497L102.389 27.4058Z" fill="white"/>
<path d="M36.23 27.5677L45.9736 10.9069L50.6821 27.5677L45.9736 44.2246L36.23 27.5677ZM31.4806 30.2728L41.2259 46.931L24.2544 42.6259L11.9924 30.2728H31.4811H31.4806ZM41.2239 8.19935L31.4806 24.8601H11.9919L24.2539 12.5069L41.2241 8.19935H41.2239ZM55.1345 21.8976L49.1895 -0.000471584L27.0015 5.86844L23.717 11.5857L17.0523 11.5385L0.811523 27.5689L17.0523 43.5956H17.0527L23.7146 43.5471L27.0039 49.2644L49.1893 55.1333L55.1344 33.2377L51.7582 27.5677L55.1345 21.8976Z" fill="white"/>
</g>
</g>
<defs>
<clipPath id="clip0_182_3">
<rect width="119.186" height="60" fill="white" transform="translate(0 -0.00195312)"/>
</clipPath>
</defs>
</svg>
