<svg width="80" height="80" viewBox="0 0 80 80" fill="none" xmlns="http://www.w3.org/2000/svg">
<path d="M39.9997 66.6666C44.1663 66.6666 47.708 65.2083 50.6247 62.2916C53.5413 59.375 54.9997 55.8333 54.9997 51.6666C54.9997 47.5 53.5413 43.9583 50.6247 41.0416C47.708 38.125 44.1663 36.6666 39.9997 36.6666C35.833 36.6666 32.2913 38.125 29.3747 41.0416C26.458 43.9583 24.9997 47.5 24.9997 51.6666C24.9997 55.8333 26.458 59.375 29.3747 62.2916C32.2913 65.2083 35.833 66.6666 39.9997 66.6666ZM30.3138 34.2241C31.4033 33.5702 32.5625 33.0469 33.7913 32.6541C35.0202 32.2608 36.2736 31.9872 37.5513 31.8333L29.5513 15.8975H21.218L30.3138 34.2241ZM49.6855 34.2241L58.8647 15.8975H50.448L43.2688 30.1925L44.243 32.1408C45.213 32.363 46.15 32.6366 47.0538 32.9616C47.9577 33.2866 48.8349 33.7075 49.6855 34.2241ZM22.7113 62.8908C22.2586 61.8997 21.9338 60.8261 21.7372 59.67C21.5405 58.5138 21.5063 57.31 21.6347 56.0583C21.1219 54.2289 20.8836 52.3677 20.9197 50.475C20.9558 48.5816 21.2644 46.7225 21.8455 44.8975C21.8455 44.0641 21.99 43.2736 22.2788 42.5258C22.5672 41.778 22.9677 41.105 23.4805 40.5066C21.9166 40.9638 20.6091 41.7938 19.558 42.9966C18.5063 44.1994 17.9166 45.6041 17.7888 47.2108C16.5494 48.818 15.9583 50.6611 16.0155 52.74C16.0733 54.8189 16.82 56.7175 18.2555 58.4358C18.2555 59.6752 18.6883 60.7275 19.5538 61.5925C20.4194 62.458 21.4719 62.8908 22.7113 62.8908ZM57.288 62.8908C59.963 62.4125 62.195 61.1336 63.9838 59.0541C65.7722 56.9752 66.6663 54.5127 66.6663 51.6666C66.6663 48.8205 65.7722 46.358 63.9838 44.2791C62.195 42.1997 59.963 40.9208 57.288 40.4425C57.1597 40.4425 57.0313 40.4477 56.903 40.4583C56.7752 40.4688 56.6472 40.485 56.5188 40.5066C57.6127 42.0961 58.4663 43.8375 59.0797 45.7308C59.693 47.6241 59.9997 49.6027 59.9997 51.6666C59.9997 53.7305 59.693 55.7091 59.0797 57.6025C58.4663 59.4958 57.6127 61.2372 56.5188 62.8266C56.6472 62.8483 56.7752 62.8644 56.903 62.875C57.0313 62.8855 57.1597 62.8908 57.288 62.8908ZM39.9997 71.6666C37.8202 71.6666 35.7486 71.3419 33.7847 70.6925C31.8213 70.0425 30.0213 69.13 28.3847 67.955C27.8419 68.1089 27.283 68.2102 26.708 68.2591C26.133 68.3086 25.5358 68.3333 24.9163 68.3333C20.3308 68.3333 16.4205 66.7158 13.1855 63.4808C9.95051 60.2458 8.33301 56.3355 8.33301 51.75C8.33301 47.3011 9.84801 43.4933 12.878 40.3266C15.908 37.16 19.613 35.4572 23.993 35.2183C24.228 35.2183 24.4525 35.2341 24.6663 35.2658C24.8802 35.298 25.0938 35.3355 25.3072 35.3783L13.0772 10.8975H32.6922L39.9997 25.5133L47.3072 10.8975H66.9222L54.8072 35.18C54.9994 35.1372 55.1972 35.105 55.4005 35.0833C55.6033 35.0622 55.8116 35.0516 56.0255 35.0516C60.4272 35.325 64.1344 37.045 67.1472 40.2116C70.16 43.3783 71.6663 47.1966 71.6663 51.6666C71.6663 56.3077 70.0488 60.2458 66.8138 63.4808C63.5788 66.7158 59.6408 68.3333 54.9997 68.3333C54.4141 68.3333 53.8308 68.3086 53.2497 68.2591C52.6686 68.2102 52.1066 68.1089 51.5638 67.955C49.9272 69.1089 48.1355 70.0158 46.1888 70.6758C44.2422 71.3363 42.1791 71.6666 39.9997 71.6666ZM34.3138 60.0641L36.4547 53.0575L30.7688 48.9933H37.7755L39.9997 41.6025L42.2238 48.9933H49.2305L43.5447 53.0575L45.6855 60.0641L39.9997 55.75L34.3138 60.0641Z" fill="#E8EAED"/>
</svg>
