<svg width="80" height="80" viewBox="0 0 80 80" fill="none" xmlns="http://www.w3.org/2000/svg">
<path d="M15.7497 65.8334C12.6086 65.8334 9.93773 64.7245 7.73717 62.5068C5.53606 60.2884 4.40134 57.5873 4.33301 54.4034C4.33301 53.9334 4.35551 53.4698 4.40051 53.0126C4.44551 52.5554 4.52356 52.0876 4.63467 51.6092L11.6347 23.6092C12.3641 20.7998 13.8491 18.5237 16.0897 16.7809C18.3302 15.0381 20.8836 14.1667 23.7497 14.1667H56.2497C59.1158 14.1667 61.6691 15.0381 63.9097 16.7809C66.1502 18.5237 67.6352 20.7998 68.3647 23.6092L75.3647 51.6092C75.4758 52.0876 75.5677 52.5692 75.6405 53.0542C75.7133 53.5392 75.7497 54.0168 75.7497 54.4867C75.7497 57.6706 74.6269 60.3579 72.3813 62.5484C70.1352 64.7384 67.4255 65.8334 64.2522 65.8334C62.0666 65.8334 60.0488 65.2598 58.1988 64.1126C56.3483 62.9648 54.9444 61.4101 53.9872 59.4484L51.6213 54.5834C51.2797 53.889 50.7669 53.3681 50.083 53.0209C49.3991 52.6737 48.6769 52.5001 47.9163 52.5001H32.083C31.328 52.5001 30.6072 52.6709 29.9205 53.0126C29.2338 53.3548 28.7197 53.8784 28.378 54.5834L26.0122 59.4484C25.0766 61.4318 23.6763 62.9917 21.8113 64.1284C19.9463 65.2651 17.9258 65.8334 15.7497 65.8334ZM16.008 60.8334C17.2075 60.8334 18.3072 60.5129 19.3072 59.8717C20.3072 59.2306 21.0616 58.374 21.5705 57.3018L23.9038 52.5192C24.6711 50.9476 25.7966 49.7181 27.2805 48.8309C28.7644 47.9437 30.3652 47.5001 32.083 47.5001H47.9163C49.6475 47.5001 51.2511 47.9626 52.7272 48.8876C54.2038 49.8131 55.3544 51.0345 56.1788 52.5518L58.5122 57.3018C59.0211 58.374 59.7755 59.2306 60.7755 59.8717C61.7755 60.5129 62.8825 60.8334 64.0963 60.8334C65.8858 60.8334 67.4197 60.234 68.698 59.0351C69.9763 57.8367 70.6325 56.3529 70.6663 54.5834C70.6663 54.5534 70.6002 53.9615 70.468 52.8076L63.468 24.8909C63.0363 23.2198 62.1569 21.8481 60.8297 20.7759C59.503 19.7031 57.9763 19.1667 56.2497 19.1667H23.7497C22.0002 19.1667 20.4538 19.7031 19.1105 20.7759C17.7672 21.8481 16.9075 23.2198 16.5313 24.8909L9.53134 52.8076C9.4419 53.0981 9.37579 53.6623 9.33301 54.5001C9.33301 56.2912 9.98801 57.7945 11.298 59.0101C12.6075 60.2256 14.1775 60.8334 16.008 60.8334ZM44.9997 36.2817C45.8158 36.2817 46.5113 35.9945 47.0863 35.4201C47.6608 34.8451 47.948 34.1495 47.948 33.3334C47.948 32.5173 47.6608 31.8218 47.0863 31.2467C46.5113 30.6723 45.8158 30.3851 44.9997 30.3851C44.1836 30.3851 43.488 30.6723 42.913 31.2467C42.3386 31.8218 42.0513 32.5173 42.0513 33.3334C42.0513 34.1495 42.3386 34.8451 42.913 35.4201C43.488 35.9945 44.1836 36.2817 44.9997 36.2817ZM51.6663 29.6151C52.4825 29.6151 53.178 29.3279 53.753 28.7534C54.3275 28.1784 54.6147 27.4829 54.6147 26.6667C54.6147 25.8506 54.3275 25.1551 53.753 24.5801C53.178 24.0056 52.4825 23.7184 51.6663 23.7184C50.8502 23.7184 50.1547 24.0056 49.5797 24.5801C49.0052 25.1551 48.718 25.8506 48.718 26.6667C48.718 27.4829 49.0052 28.1784 49.5797 28.7534C50.1547 29.3279 50.8502 29.6151 51.6663 29.6151ZM51.6663 42.9484C52.4825 42.9484 53.178 42.6612 53.753 42.0868C54.3275 41.5117 54.6147 40.8162 54.6147 40.0001C54.6147 39.184 54.3275 38.4884 53.753 37.9134C53.178 37.339 52.4825 37.0517 51.6663 37.0517C50.8502 37.0517 50.1547 37.339 49.5797 37.9134C49.0052 38.4884 48.718 39.184 48.718 40.0001C48.718 40.8162 49.0052 41.5117 49.5797 42.0868C50.1547 42.6612 50.8502 42.9484 51.6663 42.9484ZM58.333 36.2817C59.1491 36.2817 59.8447 35.9945 60.4197 35.4201C60.9941 34.8451 61.2813 34.1495 61.2813 33.3334C61.2813 32.5173 60.9941 31.8218 60.4197 31.2467C59.8447 30.6723 59.1491 30.3851 58.333 30.3851C57.5169 30.3851 56.8213 30.6723 56.2463 31.2467C55.6719 31.8218 55.3847 32.5173 55.3847 33.3334C55.3847 34.1495 55.6719 34.8451 56.2463 35.4201C56.8213 35.9945 57.5169 36.2817 58.333 36.2817ZM28.3313 41.1542C28.9052 41.1542 29.3802 40.9665 29.7563 40.5909C30.1325 40.2154 30.3205 39.7406 30.3205 39.1667V35.3209H34.1663C34.7402 35.3209 35.215 35.1331 35.5905 34.7576C35.9661 34.3826 36.1538 33.9084 36.1538 33.3351C36.1538 32.7612 35.9661 32.2862 35.5905 31.9101C35.215 31.534 34.7402 31.3459 34.1663 31.3459H30.3205V27.5001C30.3205 26.9262 30.1327 26.4515 29.7572 26.0759C29.3822 25.7004 28.908 25.5126 28.3347 25.5126C27.7608 25.5126 27.2858 25.7004 26.9097 26.0759C26.5336 26.4515 26.3455 26.9262 26.3455 27.5001V31.3459H22.4997C21.9258 31.3459 21.4511 31.5337 21.0755 31.9092C20.7 32.2842 20.5122 32.7584 20.5122 33.3317C20.5122 33.9056 20.7 34.3806 21.0755 34.7568C21.4511 35.1329 21.9258 35.3209 22.4997 35.3209H26.3455V39.1667C26.3455 39.7406 26.5333 40.2154 26.9088 40.5909C27.2838 40.9665 27.758 41.1542 28.3313 41.1542Z" fill="#E8EAED"/>
</svg>
