<svg width="80" height="80" viewBox="0 0 80 80" fill="none" xmlns="http://www.w3.org/2000/svg">
<path d="M36.9872 64.3399L20.5122 54.8207C19.5638 54.2735 18.8247 53.5427 18.2947 52.6283C17.7647 51.7138 17.4997 50.7094 17.4997 49.6149V30.5766C17.4997 29.4827 17.7647 28.4785 18.2947 27.5641C18.8247 26.6496 19.5638 25.9188 20.5122 25.3716L36.9872 15.8524C37.9355 15.3057 38.9397 15.0324 39.9997 15.0324C41.0597 15.0324 42.0638 15.3057 43.0122 15.8524L59.4872 25.3716C60.4355 25.9188 61.1747 26.6496 61.7047 27.5641C62.2347 28.4785 62.4997 29.4827 62.4997 30.5766V49.6149C62.4997 50.7094 62.2347 51.7138 61.7047 52.6283C61.1747 53.5427 60.4355 54.2735 59.4872 54.8207L43.0122 64.3399C42.0638 64.8866 41.0597 65.1599 39.9997 65.1599C38.9397 65.1599 37.9355 64.8866 36.9872 64.3399ZM37.4997 58.8849V41.4999L22.4997 32.8841V49.6149C22.4997 49.786 22.5425 49.9463 22.628 50.0957C22.7136 50.2458 22.8416 50.3741 23.0122 50.4807L37.4997 58.8849ZM42.4997 58.8849L56.9872 50.4807C57.1577 50.3741 57.2858 50.2458 57.3713 50.0957C57.4569 49.9463 57.4997 49.786 57.4997 49.6149V32.8841L42.4997 41.4999V58.8849ZM8.33301 23.3333V14.3591C8.33301 12.6969 8.92162 11.2769 10.0988 10.0991C11.2766 8.92186 12.6966 8.33325 14.3588 8.33325H23.333V13.3333H14.3588C14.0594 13.3333 13.8136 13.4294 13.6213 13.6216C13.4291 13.8138 13.333 14.0596 13.333 14.3591V23.3333H8.33301ZM23.333 71.6666H14.3588C12.6966 71.6666 11.2766 71.078 10.0988 69.9007C8.92162 68.723 8.33301 67.303 8.33301 65.6407V56.6666H13.333V65.6407C13.333 65.9402 13.4291 66.186 13.6213 66.3782C13.8136 66.5705 14.0594 66.6666 14.3588 66.6666H23.333V71.6666ZM56.6663 71.6666V66.6666H65.6405C65.9399 66.6666 66.1858 66.5705 66.378 66.3782C66.5702 66.186 66.6663 65.9402 66.6663 65.6407V56.6666H71.6663V65.6407C71.6663 67.303 71.0777 68.723 69.9005 69.9007C68.7227 71.078 67.3027 71.6666 65.6405 71.6666H56.6663ZM66.6663 23.3333V14.3591C66.6663 14.0596 66.5702 13.8138 66.378 13.6216C66.1858 13.4294 65.9399 13.3333 65.6405 13.3333H56.6663V8.33325H65.6405C67.3027 8.33325 68.7227 8.92186 69.9005 10.0991C71.0777 11.2769 71.6663 12.6969 71.6663 14.3591V23.3333H66.6663ZM39.9997 37.1924L54.8972 28.5124L40.5122 20.2241C40.3416 20.1174 40.1708 20.0641 39.9997 20.0641C39.8286 20.0641 39.6577 20.1174 39.4872 20.2241L25.1022 28.5124L39.9997 37.1924Z" fill="#E8EAED"/>
</svg>
