<svg width="464" height="320" viewBox="0 0 464 320" fill="none" xmlns="http://www.w3.org/2000/svg">
<path d="M218 52.2148C218 34.423 238.255 20 263.241 20H418.759C443.745 20 464 34.423 464 52.2148V287.785C464 305.577 443.745 320 418.759 320H263.241C238.255 320 218 305.577 218 287.785V52.2148Z" fill="#003D7B"/>
<path d="M0 31.2195C0 13.9775 20.2673 0 45.2683 0H116H234.546C254.799 0 272.588 9.27786 278.103 22.7177L280.677 28.9896C286.193 42.4295 303.981 51.7073 324.235 51.7073H418.732C443.733 51.7073 464 65.6848 464 82.9268V288.78C464 306.023 443.733 320 418.732 320H45.2683C20.2673 320 0 306.023 0 288.78V31.2195Z" fill="#0050A0"/>
</svg>
