<svg width="115" height="40" viewBox="0 0 115 40" fill="none" xmlns="http://www.w3.org/2000/svg">
<g clip-path="url(#clip0_101_838)">
<path d="M35.4139 27.9884V9.32947L19.255 0V7.15646L25.5877 10.8113C25.6409 10.8428 25.685 10.8876 25.7156 10.9413C25.7462 10.995 25.7623 11.0557 25.7623 11.1175C25.7623 11.1794 25.7462 11.2401 25.7156 11.2938C25.685 11.3475 25.6409 11.3923 25.5877 11.4238L18.0629 15.7699C17.9546 15.8319 17.8318 15.8646 17.707 15.8646C17.5821 15.8646 17.4594 15.8319 17.351 15.7699L9.82616 11.4238C9.77297 11.3923 9.72889 11.3475 9.69828 11.2938C9.66766 11.2401 9.65156 11.1794 9.65156 11.1175C9.65156 11.0557 9.66766 10.995 9.69828 10.9413C9.72889 10.8876 9.77297 10.8428 9.82616 10.8113L16.1424 7.15646V0L0 9.32947V27.9884L6.20861 24.4205V17.0985C6.21016 17.0367 6.2276 16.9763 6.25927 16.9231C6.29094 16.87 6.33576 16.8259 6.38942 16.7952C6.44307 16.7644 6.50375 16.7479 6.5656 16.7474C6.62745 16.7469 6.68839 16.7623 6.74255 16.7922L14.2674 21.1382C14.3751 21.1999 14.4645 21.2892 14.5263 21.3969C14.5881 21.5045 14.6202 21.6267 14.6192 21.7508V30.4429C14.6188 30.5044 14.6024 30.5647 14.5718 30.6179C14.5411 30.6712 14.4972 30.7157 14.4443 30.7469C14.3913 30.7782 14.3312 30.7952 14.2697 30.7963C14.2083 30.7974 14.1476 30.7826 14.0935 30.7533L7.76076 27.0944L1.55215 30.6747L17.6945 40.0041L33.8369 30.6747L27.6283 27.0944L21.2955 30.7533C21.2412 30.7824 21.1803 30.797 21.1187 30.7958C21.0571 30.7946 20.9969 30.7776 20.9437 30.7464C20.8906 30.7153 20.8463 30.671 20.8151 30.6179C20.784 30.5647 20.7669 30.5045 20.7657 30.4429V21.7508C20.7652 21.6263 20.7978 21.5038 20.8604 21.3961C20.923 21.2884 21.0132 21.1994 21.1217 21.1382L28.6465 16.7922C28.7004 16.7621 28.7611 16.7464 28.8229 16.7469C28.8846 16.7473 28.9451 16.7638 28.9985 16.7947C29.052 16.8256 29.0965 16.8698 29.1276 16.9231C29.1588 16.9763 29.1756 17.0368 29.1763 17.0985V24.4205L35.4139 27.9884Z" fill="#4C4C4C"/>
<path d="M17.707 39.9996L33.8494 30.6702L27.6408 27.0899L21.308 30.7488C21.2537 30.7779 21.1928 30.7925 21.1312 30.7913C21.0696 30.7901 21.0094 30.7731 20.9562 30.7419C20.903 30.7108 20.8588 30.6665 20.8276 30.6134C20.7964 30.5602 20.7794 30.5 20.7782 30.4384V21.7463C20.7776 21.6218 20.8103 21.4993 20.8729 21.3916C20.9355 21.2839 21.0257 21.1949 21.1342 21.1337L28.659 16.7877C28.7129 16.7576 28.7736 16.7419 28.8354 16.7424C28.8971 16.7428 28.9576 16.7593 29.011 16.7902C29.0645 16.821 29.109 16.8653 29.1401 16.9186C29.1713 16.9718 29.1881 17.0323 29.1888 17.094V24.4202L35.3974 28.0005V9.3291L17.707 19.5526V39.9996Z" fill="black"/>
<path d="M19.255 0V7.15646L25.5877 10.8113C25.6409 10.8428 25.685 10.8876 25.7156 10.9413C25.7462 10.995 25.7623 11.0557 25.7623 11.1175C25.7623 11.1794 25.7462 11.2401 25.7156 11.2938C25.685 11.3475 25.6409 11.3923 25.5877 11.4238L18.0629 15.7699C17.9546 15.8319 17.8318 15.8646 17.707 15.8646C17.5821 15.8646 17.4594 15.8319 17.351 15.7699L9.82616 11.4238C9.77297 11.3923 9.72889 11.3475 9.69828 11.2938C9.66766 11.2401 9.65156 11.1794 9.65156 11.1175C9.65156 11.0557 9.66766 10.995 9.69828 10.9413C9.72889 10.8876 9.77297 10.8428 9.82616 10.8113L16.1424 7.15646V0L0 9.32947L17.707 19.553L35.4139 9.32947L19.255 0Z" fill="#808080"/>
<path d="M14.0728 30.7488L7.74007 27.0899L1.53146 30.6702L17.6738 39.9996V19.5526L0 9.3291V27.988L6.20861 24.4202V17.0981C6.21016 17.0363 6.2276 16.9759 6.25927 16.9228C6.29094 16.8696 6.33576 16.8256 6.38942 16.7948C6.44307 16.764 6.50375 16.7476 6.5656 16.7471C6.62745 16.7465 6.68839 16.762 6.74255 16.7918L14.2674 21.1379C14.3751 21.1996 14.4645 21.2888 14.5263 21.3965C14.5881 21.5041 14.6202 21.6263 14.6192 21.7505V30.4425C14.6202 30.5067 14.6038 30.57 14.5718 30.6256C14.5398 30.6812 14.4933 30.7272 14.4374 30.7586C14.3814 30.79 14.3179 30.8056 14.2538 30.8039C14.1896 30.8022 14.1271 30.7831 14.0728 30.7488Z" fill="#4C4C4C"/>
<path d="M44.7227 21.7753V10.4301H49.4826V21.9367C49.4826 23.8159 50.447 25.0824 52.7938 25.0824C54.9958 25.0824 56.043 23.7372 56.043 21.8539V10.4301H60.803V21.7753C60.803 26.2082 58.1415 28.8986 52.7938 28.8986C47.4462 28.8986 44.7227 26.262 44.7227 21.7753ZM63.0298 14.7844H67.2516V16.6677H67.3344C67.7794 15.9476 68.4062 15.3574 69.1516 14.9563C69.8971 14.5552 70.735 14.3575 71.5811 14.3829C74.5902 14.3829 76.3659 16.5311 76.3659 19.5981V28.5592H71.9826V20.4839C71.9826 19.0311 71.2583 18.0377 69.8344 18.0377C68.4106 18.0377 67.4131 19.2463 67.4131 20.9351V28.5592H63.0298V14.7844ZM78.6175 9.3291H83.0008V12.8763H78.6175V9.3291ZM78.6175 14.7844H83.0008V28.5592H78.6175V14.7844ZM86.4487 24.921V18.3357H84.6192V14.7844H86.4487V10.4301H90.7202V14.7844H93.2036V18.3357H90.7202V23.9773C90.7202 25.0534 91.3121 25.3225 92.2516 25.3225C92.6283 25.3225 93.0794 25.2976 93.2202 25.2976V28.4971C92.4335 28.6596 91.6307 28.7304 90.8278 28.7082C88.274 28.7082 86.4487 27.8763 86.4487 24.921ZM95.9354 29.6768H97.442C98.7334 29.6768 99.2425 29.1677 99.2425 28.2281C99.2425 27.6362 98.9735 26.8291 98.4147 25.3763L94.3708 14.7844H98.9942L100.848 20.6453C101.262 21.9905 101.709 23.8159 101.709 23.8159H101.763C101.763 23.8159 102.14 21.9905 102.57 20.6453L104.371 14.7844H108.733L103.973 28.7372C102.872 31.9615 101.556 33.1122 98.7872 33.1122H95.9354V29.6768ZM114.776 15.8564C114.687 15.6458 114.558 15.4546 114.396 15.2935C114.235 15.1242 114.04 14.9903 113.824 14.9003C113.609 14.8102 113.377 14.7639 113.144 14.7639C112.91 14.7639 112.678 14.8102 112.463 14.9003C112.252 14.9879 112.061 15.1159 111.9 15.2769C111.74 15.4393 111.612 15.6303 111.523 15.8399C111.433 16.0556 111.387 16.287 111.387 16.5207C111.387 16.7545 111.433 16.9859 111.523 17.2016C111.612 17.41 111.74 17.5996 111.9 17.7604C112.061 17.9227 112.252 18.0521 112.463 18.1412C112.784 18.278 113.139 18.3148 113.482 18.2469C113.824 18.179 114.138 18.0094 114.383 17.7604C114.546 17.6009 114.675 17.411 114.764 17.2016C114.854 16.9859 114.9 16.7545 114.9 16.5207C114.9 16.287 114.854 16.0556 114.764 15.8399L114.776 15.8564ZM114.309 17.2099C114.189 17.4073 114.023 17.5722 113.824 17.69C113.62 17.8093 113.388 17.8722 113.152 17.8722C112.915 17.8722 112.683 17.8093 112.479 17.69C112.282 17.5717 112.117 17.4068 111.999 17.2099C111.88 17.0058 111.817 16.7737 111.817 16.5373C111.817 16.3009 111.88 16.0688 111.999 15.8647C112.115 15.6659 112.28 15.5005 112.479 15.3846C112.683 15.2653 112.915 15.2024 113.152 15.2024C113.388 15.2024 113.62 15.2653 113.824 15.3846C114.023 15.5005 114.189 15.6659 114.305 15.8647C114.424 16.0688 114.487 16.3009 114.487 16.5373C114.487 16.7737 114.424 17.0058 114.305 17.2099H114.309Z" fill="black"/>
<path d="M113.771 16.5275C113.831 16.4385 113.861 16.3328 113.858 16.2254C113.857 16.092 113.805 15.964 113.712 15.8678C113.62 15.7715 113.494 15.7144 113.361 15.708H112.533V17.3264H112.889V16.78H113.241L113.527 17.3264H113.916L113.585 16.6972C113.658 16.6551 113.722 16.5972 113.771 16.5275ZM112.897 15.9729H113.233C113.286 15.9754 113.338 15.9926 113.382 16.0226C113.413 16.0457 113.437 16.0766 113.453 16.1123C113.468 16.1479 113.473 16.1869 113.469 16.2254C113.471 16.2661 113.465 16.307 113.45 16.3449C113.435 16.3829 113.412 16.417 113.382 16.4448C113.339 16.4859 113.283 16.5108 113.224 16.5151H112.897V15.9729Z" fill="black"/>
</g>
<defs>
<clipPath id="clip0_101_838">
<rect width="114.913" height="40" fill="white"/>
</clipPath>
</defs>
</svg>
