<svg width="156" height="30" viewBox="0 0 156 30" fill="none" xmlns="http://www.w3.org/2000/svg">
<g clip-path="url(#clip0_101_795)">
<mask id="mask0_101_795" style="mask-type:luminance" maskUnits="userSpaceOnUse" x="0" y="0" width="156" height="30">
<path d="M0 1.90735e-06H155.1V30H0V1.90735e-06Z" fill="white"/>
</mask>
<g mask="url(#mask0_101_795)">
<path d="M104.642 9.77615C104.829 8.87445 104.931 8.08737 104.947 7.41459H96.1802C95.4772 7.41459 94.6955 7.36876 93.8365 7.27711V10.1659H100.601C99.8542 13.7752 97.3653 17.8514 92.7305 21.3386L94.8678 23.2578C97.059 21.7607 98.8917 20.1272 100.378 18.3623L105.017 23.0973L107.455 21.1714L102.255 15.761C103.391 13.8955 104.191 11.902 104.642 9.77615Z" fill="#295198"/>
<path d="M53.375 22.6385V25.4358H66.0222V29.7002H69.5853V22.7761H55.645C54.9722 22.7761 54.2155 22.7301 53.375 22.6385Z" fill="#295198"/>
<path d="M53.8565 17.5947H69.3789V14.981H57.3508V13.7885H69.1955V11.2206H57.3508V10.0284H69.4247V7.41463H53.4668C53.7265 8.10244 53.8565 8.86698 53.8565 9.7074V17.5947Z" fill="#295198"/>
<path d="M51.7246 18.7176V21.5146H71.6492V18.855H54.0175C53.3447 18.855 52.5805 18.8092 51.7246 18.7176Z" fill="#295198"/>
<path d="M80.0045 25.8255H91.0237V19.4515H78.7343C78.0615 19.4515 77.3127 19.398 76.4874 19.291V22.0194H87.5294V23.2575H76.1895C76.4032 24.0371 76.5103 24.7632 76.5103 25.4358V29.7002H91.1385V27.0637H80.0045V25.8255Z" fill="#295198"/>
<path d="M87.9513 14.224H84.9477V12.3898H87.9513V14.224ZM81.5223 15.6454H77.0238V13.261H81.5223V15.6454ZM87.9513 9.40921V9.95943H84.9477V7.32271H81.2473C81.4305 8.04131 81.5223 8.67536 81.5223 9.22559V10.6931H77.0238V7.36853H73.2773C73.4759 8.08725 73.5753 8.75209 73.5753 9.36317V18.2363H84.9477V16.6773H87.9513V18.2363H91.2072V6.95578H87.4011C87.768 7.90373 87.9513 8.72129 87.9513 9.40921Z" fill="#295198"/>
<path d="M146.717 24.2547V19.6002H152.972V16.8031H140.531V10.2456H153.018V7.40263H136.647C136.891 8.09044 137.014 8.84715 137.014 9.67244V19.6002H143.223V24.2547H137.289C136.616 24.2547 135.852 24.2087 134.996 24.1171V27.0977H154.921V24.2547H146.717Z" fill="#295198"/>
<path d="M111.323 6.9557H107.256C107.623 7.90354 107.806 8.7212 107.806 9.40901V29.7002H111.323V17.2503H113.79V14.3157H111.323V6.9557Z" fill="#295198"/>
<path d="M129.154 9.40901V29.7002H132.671V6.9557H128.604C128.97 7.90354 129.154 8.7212 129.154 9.40901Z" fill="#295198"/>
<path d="M125.962 9.77615C126.15 8.87445 126.251 8.08737 126.267 7.41459H122.74V5.09578H118.773C118.956 5.8145 119.048 6.44103 119.048 6.97591V7.41459H117.501C116.797 7.41459 116.016 7.36876 115.157 7.27711V10.1659H121.921C121.175 13.7752 118.686 17.8514 114.051 21.3386L116.188 23.2578C118.379 21.7607 120.212 20.1272 121.698 18.3623L126.337 23.0973L128.775 21.1714L123.576 15.761C124.712 13.8955 125.511 11.902 125.962 9.77615Z" fill="#295198"/>
</g>
<path d="M41.3374 0.300538V4.02544C40.0742 3.54623 38.6097 3.20016 36.9669 3.13433C36.8742 3.13083 36.4977 3.13083 36.4049 3.13433C34.7621 3.20016 33.2976 3.54623 32.0344 4.02544V0.300538H27.2578V11.6553C29.7339 9.36272 33.0454 7.95969 36.6859 7.95969C40.3263 7.95969 43.6379 9.36272 46.1139 11.6553V0.300538H41.3374Z" fill="url(#paint0_radial_101_795)"/>
<mask id="mask1_101_795" style="mask-type:luminance" maskUnits="userSpaceOnUse" x="0" y="-6" width="156" height="41">
<path d="M0 -5.81617H155.1V34.8975H0V-5.81617Z" fill="white"/>
</mask>
<g mask="url(#mask1_101_795)">
<path d="M8.94058 22.1391H4.16211V29.7002H23.6541V25.6282H8.94058V22.1391Z" fill="#295198"/>
<path d="M8.75567 17.2536C9.97963 17.9587 11.5813 19.3075 12.1021 21.6934H16.5358C15.9165 17.0356 12.9305 14.568 10.7462 13.3632C11.0779 12.2455 11.2297 11.1788 11.2874 10.2676H15.6504V6.19536H1.51721V10.2676H6.52566C6.44353 11.6702 6.09788 13.5301 4.97848 14.9805C3.89411 16.3856 2.3371 17.4372 0.179688 17.9746L2.04595 21.4593C4.90408 20.6976 7.15261 19.2896 8.75567 17.2536Z" fill="#295198"/>
<path d="M39.3765 15.4994H51.7236C47.8762 12.8306 42.5593 11.1795 36.6858 11.1795C31.773 11.1795 27.2535 12.3376 23.6537 14.2772V6.1957H18.8751V11.3426H15.6504V15.4996H18.8751V21.6936H23.6537V15.4994H33.9935V17.6216H27.2576V21.6936H41.3373V26.7793H46.1138V17.6216H39.3765V15.4994Z" fill="#295198"/>
</g>
</g>
<defs>
<radialGradient id="paint0_radial_101_795" cx="0" cy="0" r="1" gradientUnits="userSpaceOnUse" gradientTransform="translate(36.73 13.1054) rotate(-90) scale(13.4548)">
<stop stop-color="white"/>
<stop offset="0.283015" stop-color="#3CB879"/>
<stop offset="0.55" stop-color="#3CB879"/>
<stop offset="0.581627" stop-color="#3CB879"/>
<stop offset="0.78" stop-color="#295198"/>
<stop offset="1" stop-color="#295198"/>
</radialGradient>
<clipPath id="clip0_101_795">
<rect width="155.1" height="30" fill="white"/>
</clipPath>
</defs>
</svg>
