<svg width="92" height="40" viewBox="0 0 92 40" fill="none" xmlns="http://www.w3.org/2000/svg">
<g clip-path="url(#clip0_101_845)">
<path d="M11.976 32.6249V31.936H18.0524V32.6249H15.8272V32.8813C15.8272 33.1954 16.0521 33.6041 16.5004 34.1021C16.9498 34.6021 17.5344 35.0373 18.2485 35.408C18.1707 35.4846 18.095 35.5633 18.0213 35.6439C17.9576 35.7154 17.8826 35.7938 17.7985 35.8814C17.3195 35.7347 16.8537 35.5478 16.406 35.3229C15.9488 35.0948 15.4869 34.7529 15.0165 34.2946C14.5733 34.7655 14.112 35.1188 13.6256 35.3547C13.1402 35.5906 12.649 35.7739 12.1495 35.9022C12.0764 35.8157 12.0085 35.7337 11.9449 35.6544C11.8791 35.5765 11.8122 35.4946 11.7418 35.408C12.5838 35.0786 13.2042 34.6532 13.6041 34.1239C14.0055 33.5952 14.2044 33.1746 14.2044 32.8603V32.6249H11.976ZM13.8389 39.5413C13.6524 39.5413 13.4917 39.4624 13.3591 39.3038C13.2234 39.1461 13.1546 38.9744 13.1546 38.7886V36.7975H14.7772V38.4233C14.7772 38.5516 14.7985 38.6571 14.8425 38.7355C14.8837 38.8126 14.9772 38.8539 15.1201 38.8539H21.6743V39.5413H13.8389ZM18.4195 33.8693V33.1824H19.9413V31.8322H21.5626V36.9545H19.9413V33.8693H18.4195ZM27.2382 35.9524H23.0831V35.2635H33.0362V35.9524H28.8584V36.8037H31.8309C32.03 36.8037 32.1942 36.8788 32.3242 37.0302C32.4522 37.179 32.5153 37.3549 32.5153 37.5565V39.9771H30.8925V37.9197C30.8925 37.7917 30.8769 37.6889 30.8405 37.6101C30.8033 37.5319 30.7062 37.4916 30.5512 37.4916H23.577V36.8036H27.2383L27.2382 35.9524ZM30.8769 32.4116V31.7467H32.4986V34.6558H24.6431C24.3706 34.6558 24.1336 34.5833 23.926 34.4315C23.7187 34.2811 23.6159 34.0724 23.6159 33.802V31.7465H25.2387V32.4114L30.8769 32.4116ZM25.2389 33.5445C25.2389 33.658 25.2812 33.7575 25.3687 33.8405C25.4522 33.9241 25.5535 33.97 25.6684 33.97H30.8769V33.1005H25.2387L25.2389 33.5445ZM38.8929 34.7216V35.4096H36.044V37.3929C36.044 37.5072 36.0863 37.6069 36.172 37.6935C36.2573 37.7765 36.3597 37.8194 36.4724 37.8194H39.385V38.5063H35.4463C35.1756 38.5063 34.9364 38.4338 34.7308 38.2828C34.5245 38.1353 34.4214 37.9232 34.4214 37.6523V32.0665H39.1062V32.7554H36.044V34.7216H38.8929ZM40.3542 31.8306H41.9775V39.2652H40.3544V35.1314H39.3046V34.4434H40.3542V31.8306ZM42.5334 31.8096H44.1572V39.7982H42.5334V31.8098M55.4964 38.5063V39.1973H45.5355V38.5063H55.4964ZM53.4207 32.9209C53.4207 32.7915 53.4034 32.6898 53.3684 32.6114C53.3325 32.5332 53.2344 32.4919 53.0783 32.4919H46.0968V31.8039H54.3602C54.56 31.8039 54.7234 31.8791 54.8512 32.0294C54.9803 32.1798 55.0432 32.3561 55.0432 32.5556V37.1184H53.4207V35.1481H46.3967V34.459H53.4207V32.9209ZM60.9314 36.5595H62.5552V38.5061H66.7312V39.1973H56.7768V38.5063H60.9314V36.5595ZM58.8816 34.803C58.8816 34.93 58.9037 35.0338 58.9481 35.1125C58.9913 35.1908 59.0816 35.229 59.2247 35.229H66.2292V35.9189H57.9448C57.7592 35.9189 57.5993 35.8397 57.4626 35.6825C57.3279 35.5243 57.2617 35.3533 57.2617 35.1652V31.7392H58.8818V34.803M68.2043 32.7392V32.0512H74.5161V32.7392H73.6388V37.786H74.5161V38.4745H68.2043V37.786H69.0821V32.7392H68.2043ZM70.7038 37.786H72.0155V32.7392H70.7038V37.786ZM77.4907 31.8249V34.5264H78.9022V35.2139H77.4907V39.798H75.8676V31.8247L77.4907 31.8249ZM89.1907 38.5063V39.1973H79.2304V38.5063H89.1907ZM87.1161 32.9209C87.1161 32.7915 87.0972 32.6898 87.0622 32.6114C87.0241 32.5332 86.9281 32.4919 86.7724 32.4919H79.7893V31.8039H88.0538C88.2533 31.8039 88.4165 31.8791 88.545 32.0294C88.6734 32.1798 88.7356 32.3561 88.7356 32.5556V37.1184H87.1161V35.1481H80.0905V34.459H87.1159L87.1161 32.9209ZM0.100622 32.4073V32.0921H2.39217V32.4073H1.61742V33.4178C1.61742 33.7389 1.73475 34.0395 1.96657 34.3177C2.13809 34.5246 2.31293 34.7287 2.49102 34.93C2.46336 34.9702 2.4318 35.0076 2.39679 35.0416C2.36294 35.0801 2.33203 35.1211 2.30435 35.1643C2.14791 35.074 1.97137 34.947 1.77617 34.7874C1.57831 34.6272 1.40284 34.4251 1.24693 34.1835C1.10293 34.4315 0.925331 34.6418 0.717153 34.8119C0.507376 34.981 0.334576 35.1125 0.196266 35.2045C0.158043 35.157 0.125689 35.1214 0.100622 35.0923C0.0736002 35.0608 0.0412443 35.0238 0 34.9785C0.1456 34.848 0.325689 34.6372 0.544888 34.3458C0.764087 34.0546 0.875197 33.7419 0.875197 33.4089V32.4073H0.100622ZM3.81795 32.0118H4.5623V35.6633H3.81795V33.5326H3.51039V35.418H2.76728V32.0118H3.51039V33.2185H3.81795V32.0118ZM8.13705 32.0614V32.3771H6.02736V33.2482C6.02736 33.3077 6.03785 33.3531 6.05616 33.3897C6.07696 33.4256 6.11874 33.4445 6.18452 33.4445H8.13705V33.7591H5.59732C5.51216 33.7591 5.4391 33.7236 5.37812 33.6507C5.31536 33.5796 5.28461 33.5008 5.28461 33.4151V32.0614H8.13705ZM6.05563 35.5463C5.97154 35.5463 5.89687 35.5102 5.8359 35.4388C5.77314 35.3659 5.74292 35.2875 5.74292 35.2007V34.2894H6.48567V35.0338C6.48567 35.0937 6.49403 35.1413 6.51696 35.1789C6.53421 35.2126 6.57794 35.2311 6.64283 35.2311H9.64655V35.5463H6.05563ZM9.54273 32.0148V32.6637H10.1898V32.9789H9.54273V34.3029H8.79891V32.015L9.54273 32.0148ZM2.12888 36.8612V36.4498H2.87217V38.0329H0.616888C0.493155 38.0329 0.383999 37.9968 0.288533 37.9291C0.1936 37.8606 0.147199 37.762 0.147199 37.6377V36.4498H0.889242V36.8612H2.12888ZM3.7591 38.8878V38.5063H4.50168V40H0.84302C0.756264 40 0.684265 39.963 0.622043 39.8905C0.560532 39.8194 0.527644 39.7412 0.527644 39.6562V38.5063H1.27395V38.8878H3.7591ZM0.889242 37.5193C0.889242 37.5735 0.908798 37.6174 0.947909 37.6571C0.987909 37.6967 1.03289 37.7166 1.08462 37.7166H2.12888V37.1758H0.889242V37.5193ZM1.27395 39.4891C1.27395 39.546 1.28177 39.5945 1.30062 39.63C1.32106 39.667 1.36426 39.6834 1.43057 39.6834H3.75892V39.2025H1.27395V39.4891ZM3.15839 37.3413V37.027H3.75892V36.339H4.50168V38.2928H3.75892V37.3413H3.15839ZM7.73367 36.5547C8.01705 36.7275 8.16051 36.9399 8.16051 37.1904C8.16051 37.4357 8.01705 37.6461 7.73367 37.8215C7.45012 37.9968 7.10878 38.085 6.70701 38.085C6.30558 38.085 5.96639 37.9968 5.67981 37.8215C5.39732 37.6461 5.25652 37.4357 5.25652 37.1904C5.25652 36.9397 5.39732 36.7275 5.67963 36.5547C5.96639 36.3829 6.30541 36.2964 6.70701 36.2964C7.10878 36.2964 7.45012 36.3829 7.73367 36.5547ZM6.10612 39.8716C6.02327 39.8716 5.94967 39.8357 5.88905 39.7627C5.82541 39.6916 5.79554 39.6144 5.79554 39.5276V38.6148H6.53883V39.3612C6.53883 39.4197 6.54825 39.4672 6.5687 39.5022C6.58647 39.5392 6.63021 39.5564 6.69332 39.5564H9.69918V39.8716H6.10612ZM6.20318 36.7812C6.06701 36.8935 5.99963 37.0313 5.99963 37.1904C5.99963 37.3502 6.06718 37.4891 6.20318 37.5996C6.34203 37.7134 6.50754 37.7698 6.70167 37.7698C6.89634 37.7698 7.06558 37.7134 7.20443 37.5996C7.34523 37.4891 7.41776 37.3502 7.41776 37.1904C7.41776 37.0313 7.34523 36.8935 7.20443 36.7812C7.06558 36.6695 6.89634 36.6132 6.70167 36.6132C6.50754 36.6132 6.34203 36.6695 6.20318 36.7812ZM8.90327 36.3392H9.64869V38.6841H8.90327V36.3392Z" fill="#231F20"/>
<path d="M26.9746 0.599382H19.898L18.626 6.4927L25.7463 6.32203L26.9746 0.599382ZM16.8978 14.4841C16.7005 15.4356 16.5111 16.1705 16.3284 16.6863C16.1453 17.204 15.8665 17.6278 15.4896 17.9592C15.1138 18.2891 14.5929 18.4546 13.9252 18.4546C12.535 18.4546 11.8407 17.8232 11.8407 16.5604V16.0745C11.8407 15.7729 11.8626 15.4754 11.9033 15.1835V14.9174L5.25996 15.6836C5.1572 16.3293 5.10547 16.8648 5.10547 17.2907C5.10547 18.7912 5.40769 19.9933 6.01516 20.8943C6.62493 21.7956 7.39791 22.4491 8.33782 22.8557C9.2779 23.2607 10.2107 23.5135 11.135 23.6125C12.0589 23.7106 13.0777 23.7607 14.1894 23.7607C16.9531 23.7607 19.0603 23.2132 20.5149 22.1167C21.9691 21.0194 23.0318 18.904 23.704 15.7682C23.7337 15.5291 23.7776 15.359 23.8267 15.2552L25.6201 6.91065L18.554 6.82354L16.8978 14.4841ZM41.2435 8.38159C40.8968 8.83883 40.4412 9.14104 39.8791 9.28469C39.3144 9.42762 38.5178 9.49962 37.4817 9.49962H35.0935L35.6211 7.03385L28.5794 6.94727L25.07 23.3734H39.102C41.8881 23.3734 44.0328 22.6391 45.5349 21.1744C47.0371 19.7072 47.7887 18.0715 47.7887 16.2671C47.7887 13.8004 46.5631 12.1986 44.1153 11.4618V11.399C45.6044 10.9453 46.6906 10.2079 47.3727 9.18905C47.803 8.54816 48.0972 7.88203 48.2563 7.18834L41.7585 7.10959C41.7331 7.53554 41.564 7.9599 41.2435 8.38159ZM36.9207 18.4546H33.1804L34.1722 13.8109H37.9724C39.1484 13.8109 39.9262 13.9894 40.3077 14.3469C40.6881 14.7049 40.8782 15.1945 40.8782 15.8157C40.8782 17.5741 39.5577 18.4546 36.9209 18.4546M34.2149 4.89875H42.5722V5.91848L48.3932 5.77857C48.366 4.94088 48.1546 4.16577 47.751 3.45537C47.3215 2.70071 46.7255 2.09218 45.964 1.6328C45.2019 1.172 44.4111 0.884892 43.5872 0.771114C42.7614 0.656805 41.7148 0.599382 40.4407 0.599382H29.9349L28.7305 6.25056L34.2151 6.11847V4.89857M67.2541 0.654135L62.4399 5.56311L70.9129 5.81928L72.0013 0.599382H60.8833L60.9876 5.52559L67.2541 0.654135ZM55.8037 23.3734H59.748L62.3828 11.1208L59.8817 8.38887L55.8037 23.3734ZM55.3283 10.9574L52.6549 23.3734H55.6904L58.7588 8.32629L55.3283 10.9574ZM62.5629 10.2877L63.1971 7.34496L61.6689 7.3711L62.5629 10.2877ZM56.1174 7.28541L55.4671 10.3096L57.3551 7.3007L56.1174 7.28541ZM53.4653 0.724533L58.8717 5.4671L60.6516 0.599382H50.4632L49.3724 5.75457L56.9249 5.57448L53.4653 0.724718M84.8171 6.97963C84.8206 7.03918 84.824 7.0991 84.824 7.16274C84.824 8.0559 84.4706 8.82478 83.7675 9.47029C83.0617 10.1165 82.1615 10.4406 81.0612 10.4406H78.7037L79.4333 7.06994L72.2955 7.19101L68.7929 23.3734H75.9033L77.7213 14.9727H80.8317C83.3088 14.9727 85.2457 14.6829 86.6439 14.1026C88.0429 13.5227 89.2016 12.5661 90.1264 11.2356C91.0142 9.95527 91.4752 8.49696 91.5085 6.86532L84.8171 6.97963ZM77.2751 4.89875H85.6324V6.26247L91.507 6.43936C91.4777 5.22639 91.2221 4.19351 90.7339 3.3432C90.2165 2.43565 89.4624 1.7528 88.4743 1.29147C87.4854 0.830671 86.0171 0.599382 84.0702 0.599382H73.7211L72.5823 5.86835L77.2751 6.01039V4.89857" fill="#2B55A7"/>
<path d="M41.2006 5.70702C40.8247 5.39769 40.0868 5.24301 38.9855 5.24301H36.0041L35.8262 6.0791L41.435 5.94559C41.3666 5.85991 41.2903 5.77849 41.2006 5.70702Z" fill="#2B55A7"/>
<path d="M34.2148 4.89936V6.11891L35.8246 6.0798L36.0026 5.24371H38.9839C40.0852 5.24371 40.8232 5.39838 41.199 5.70772C41.2888 5.77918 41.365 5.8606 41.4335 5.94629L42.5723 5.91909V4.89918H34.2148M82.6081 5.13314H79.8508L79.6446 6.08353L84.6689 6.2334C84.3797 5.50202 83.696 5.13296 82.6081 5.13296" fill="#2B55A7"/>
<path d="M79.8512 5.13275H82.6085C83.6964 5.13275 84.3801 5.50163 84.6693 6.23301L85.6329 6.2627V4.89879H77.2754V6.01061L79.6452 6.08314L79.8512 5.13275Z" fill="#2B55A7"/>
<path d="M60.8708 0.000229836L60.6516 0.59935H60.8832L60.8708 0.000229836ZM54.8125 11.3511L55.3281 10.9575L55.4671 10.3097L54.8125 11.3511ZM63.0384 11.8359L62.5629 10.2879L62.3828 11.1209L63.0384 11.8359Z" fill="white"/>
</g>
<defs>
<clipPath id="clip0_101_845">
<rect width="91.5095" height="40" fill="white"/>
</clipPath>
</defs>
</svg>
