<svg width="80" height="80" viewBox="0 0 80 80" fill="none" xmlns="http://www.w3.org/2000/svg">
<path d="M23.334 6.66699H56.6673V34.417C56.6673 35.6948 56.3529 36.8656 55.724 37.9295C55.0957 38.9934 54.2157 39.8503 53.084 40.5003L41.334 47.3337L43.5007 55.417H54.6673L45.584 62.167L49.084 73.3337L40.0007 66.5837L30.834 73.3337L34.334 62.167L25.2507 55.417H36.5098L38.584 47.3337L26.9173 40.5003C25.7857 39.8503 24.9057 38.9934 24.2773 37.9295C23.6484 36.8656 23.334 35.6948 23.334 34.417V6.66699ZM28.334 11.667V34.417C28.334 34.8059 28.459 35.167 28.709 35.5003C28.959 35.8337 29.334 36.1392 29.834 36.417L37.834 40.8337V11.667H28.334ZM51.6673 11.667H42.834V40.8337L50.1673 36.417C50.6673 36.1392 51.0423 35.8337 51.2923 35.5003C51.5423 35.167 51.6673 34.8059 51.6673 34.417V11.667Z" fill="#0050A0"/>
</svg>
