<svg width="80" height="80" viewBox="0 0 80 80" fill="none" xmlns="http://www.w3.org/2000/svg">
<path d="M37.7494 56.667H42.7494V36.667H37.7494V56.667ZM39.9977 30.5003C40.7766 30.5003 41.4299 30.2448 41.9577 29.7337C42.4855 29.2225 42.7494 28.5892 42.7494 27.8337C42.7494 27.0309 42.486 26.3581 41.9594 25.8153C41.4327 25.272 40.7799 25.0003 40.001 25.0003C39.2221 25.0003 38.5688 25.272 38.041 25.8153C37.5132 26.3581 37.2494 27.0309 37.2494 27.8337C37.2494 28.5892 37.5127 29.2225 38.0394 29.7337C38.566 30.2448 39.2188 30.5003 39.9977 30.5003ZM40.0219 73.3337C35.4252 73.3337 31.1057 72.4587 27.0635 70.7087C23.0207 68.9587 19.4855 66.5698 16.4577 63.542C13.4299 60.5142 11.041 56.977 9.29102 52.9303C7.54102 48.8837 6.66602 44.5598 6.66602 39.9587C6.66602 35.3576 7.54102 31.0337 9.29102 26.987C11.041 22.9403 13.4299 19.417 16.4577 16.417C19.4855 13.417 23.0227 11.042 27.0694 9.29199C31.116 7.54199 35.4399 6.66699 40.041 6.66699C44.6421 6.66699 48.966 7.54199 53.0127 9.29199C57.0594 11.042 60.5827 13.417 63.5827 16.417C66.5827 19.417 68.9577 22.9448 70.7077 27.0003C72.4577 31.0559 73.3327 35.3817 73.3327 39.9778C73.3327 44.5745 72.4577 48.8939 70.7077 52.9362C68.9577 56.9789 66.5827 60.5092 63.5827 63.527C60.5827 66.5442 57.0549 68.9331 52.9994 70.6937C48.9438 72.4537 44.618 73.3337 40.0219 73.3337ZM40.041 68.3337C47.9021 68.3337 54.5827 65.5698 60.0827 60.042C65.5827 54.5142 68.3327 47.8198 68.3327 39.9587C68.3327 32.0976 65.588 25.417 60.0985 19.917C54.6091 14.417 47.9094 11.667 39.9994 11.667C32.166 11.667 25.4855 14.4117 19.9577 19.9012C14.4299 25.3906 11.666 32.0903 11.666 40.0003C11.666 47.8337 14.4299 54.5142 19.9577 60.042C25.4855 65.5698 32.1799 68.3337 40.041 68.3337Z" fill="#0050A0"/>
</svg>
