<svg width="80" height="80" viewBox="0 0 80 80" fill="none" xmlns="http://www.w3.org/2000/svg">
<path d="M57.5827 73.1663L57.166 69.1663C55.8882 68.7775 54.7216 68.2636 53.666 67.6247C52.6105 66.9858 51.6938 66.3052 50.916 65.583L47.416 67.2497L44.4994 62.7497L47.666 60.2497C47.3882 59.1941 47.2494 58.0413 47.2494 56.7913C47.2494 55.5413 47.3882 54.3886 47.666 53.333L44.4994 50.833L47.416 46.2497L50.916 47.9163C51.6938 47.2497 52.6105 46.5969 53.666 45.958C54.7216 45.3191 55.8882 44.8052 57.166 44.4163L57.5827 40.333H62.5827L63.0827 44.4163C64.3605 44.8052 65.5271 45.3191 66.5827 45.958C67.6382 46.5969 68.5549 47.2497 69.3327 47.9163L72.8327 46.2497L75.7494 50.833L72.5827 53.333C72.8605 54.3886 72.9994 55.5413 72.9994 56.7913C72.9994 58.0413 72.8605 59.1941 72.5827 60.2497L75.7494 62.7497L72.8327 67.2497L69.3327 65.583C68.5549 66.3052 67.6382 66.9858 66.5827 67.6247C65.5271 68.2636 64.3605 68.7775 63.0827 69.1663L62.5827 73.1663H57.5827ZM60.0827 65.2497C62.5271 65.2497 64.5549 64.4441 66.166 62.833C67.7771 61.2219 68.5827 59.1941 68.5827 56.7497C68.5827 54.3052 67.7771 52.2775 66.166 50.6663C64.5549 49.0552 62.5271 48.2497 60.0827 48.2497C57.6382 48.2497 55.6105 49.0552 53.9994 50.6663C52.3882 52.2775 51.5827 54.3052 51.5827 56.7497C51.5827 59.1941 52.3882 61.2219 53.9994 62.833C55.6105 64.4441 57.6382 65.2497 60.0827 65.2497ZM11.666 61.6663V18.333V36.6663V34.9997V61.6663ZM11.666 66.6663C10.3327 66.6663 9.16602 66.1525 8.16602 65.1247C7.16602 64.0969 6.66602 62.9441 6.66602 61.6663V18.333C6.66602 17.0552 7.16602 15.9025 8.16602 14.8747C9.16602 13.8469 10.3327 13.333 11.666 13.333H35.0827L40.0827 18.333H68.3327C69.6105 18.333 70.7632 18.8469 71.791 19.8747C72.8188 20.9025 73.3327 22.0552 73.3327 23.333V39.4997C72.5549 38.8886 71.7632 38.3608 70.9577 37.9163C70.1521 37.4719 69.2771 37.0552 68.3327 36.6663V23.333H37.9993L32.9993 18.333H11.666V61.6663H38.9994C39.2216 62.5552 39.4716 63.4163 39.7494 64.2497C40.0271 65.083 40.3882 65.8886 40.8327 66.6663H11.666Z" fill="#0050A0"/>
</svg>
