<svg width="80" height="80" viewBox="0 0 80 80" fill="none" xmlns="http://www.w3.org/2000/svg">
<path d="M13.3327 73.333V36.2497H6.66602V17.083H24.9994C24.5549 16.4163 24.2216 15.708 23.9994 14.958C23.7771 14.208 23.666 13.4441 23.666 12.6663C23.666 10.0736 24.5735 7.86995 26.3885 6.05551C28.203 4.24051 30.4066 3.33301 32.9994 3.33301C34.3327 3.33301 35.6244 3.61079 36.8744 4.16634C38.1244 4.7219 39.166 5.52745 39.9994 6.58301C40.8327 5.52745 41.8744 4.7219 43.1244 4.16634C44.3744 3.61079 45.666 3.33301 46.9994 3.33301C49.5921 3.33301 51.7957 4.24051 53.6102 6.05551C55.4252 7.86995 56.3327 10.0736 56.3327 12.6663C56.3327 13.4441 56.2216 14.208 55.9994 14.958C55.7771 15.708 55.4438 16.4163 54.9994 17.083H73.3327V36.2497H66.666V73.333H13.3327ZM47.0052 8.33301C45.7791 8.33301 44.7494 8.74773 43.916 9.57717C43.0827 10.4066 42.666 11.4344 42.666 12.6605C42.666 13.8866 43.0807 14.9163 43.9102 15.7497C44.7396 16.583 45.7674 16.9997 46.9935 16.9997C48.2196 16.9997 49.2494 16.585 50.0827 15.7555C50.916 14.9261 51.3327 13.8983 51.3327 12.6722C51.3327 11.4461 50.918 10.4163 50.0885 9.58301C49.2591 8.74967 48.2313 8.33301 47.0052 8.33301ZM28.666 12.6605C28.666 13.8866 29.0807 14.9163 29.9102 15.7497C30.7396 16.583 31.7674 16.9997 32.9935 16.9997C34.2196 16.9997 35.2494 16.585 36.0827 15.7555C36.916 14.9261 37.3327 13.8983 37.3327 12.6722C37.3327 11.4461 36.918 10.4163 36.0885 9.58301C35.2591 8.74967 34.2313 8.33301 33.0052 8.33301C31.7791 8.33301 30.7494 8.74773 29.916 9.57717C29.0827 10.4066 28.666 11.4344 28.666 12.6605ZM11.666 22.083V31.2497H37.4994V22.083H11.666ZM37.4994 68.333V36.2497H17.8327V68.333H37.4994ZM42.4994 68.333H62.166V36.2497H42.4994V68.333ZM68.3327 31.2497V22.083H42.4994V31.2497H68.3327Z" fill="#0050A0"/>
</svg>
