<svg width="40" height="40" viewBox="0 0 40 40" fill="none" xmlns="http://www.w3.org/2000/svg">
<g clip-path="url(#clip0_236_439)">
<path d="M25 1.6665H15V4.99984H25V1.6665ZM18.3333 23.3332H21.6667V13.3332H18.3333V23.3332ZM31.7167 12.3165L34.0833 9.94984C33.3667 9.09984 32.5833 8.29984 31.7333 7.59984L29.3667 9.9665C26.7833 7.89984 23.5333 6.6665 20 6.6665C11.7167 6.6665 5 13.3832 5 21.6665C5 29.9498 11.7 36.6665 20 36.6665C28.3 36.6665 35 29.9498 35 21.6665C35 18.1332 33.7667 14.8832 31.7167 12.3165ZM20 33.3332C13.55 33.3332 8.33333 28.1165 8.33333 21.6665C8.33333 15.2165 13.55 9.99984 20 9.99984C26.45 9.99984 31.6667 15.2165 31.6667 21.6665C31.6667 28.1165 26.45 33.3332 20 33.3332Z" fill="#0050A0"/>
</g>
<defs>
<clipPath id="clip0_236_439">
<rect width="40" height="40" fill="white"/>
</clipPath>
</defs>
</svg>
