<svg width="40" height="40" viewBox="0 0 40 40" fill="none" xmlns="http://www.w3.org/2000/svg">
<mask id="mask0_236_474" style="mask-type:alpha" maskUnits="userSpaceOnUse" x="0" y="0" width="40" height="40">
<rect width="40" height="40" fill="#D9D9D9"/>
</mask>
<g mask="url(#mask0_236_474)">
<path d="M11.666 3.3335H28.3327V16.4168C28.3327 17.0557 28.1938 17.6252 27.916 18.1252C27.6382 18.6252 27.2493 19.0279 26.7493 19.3335L20.8327 22.8335L21.9993 26.6668H28.3327L23.166 30.3335L25.166 36.6668L19.9993 32.7502L14.8327 36.6668L16.8327 30.3335L11.666 26.6668H17.9993L19.166 22.8335L13.2493 19.3335C12.7493 19.0279 12.3605 18.6252 12.0827 18.1252C11.8049 17.6252 11.666 17.0557 11.666 16.4168V3.3335ZM14.9993 6.66683V16.4168L18.3327 18.4168V6.66683H14.9993ZM24.9993 6.66683H21.666V18.4168L24.9993 16.4168V6.66683Z" fill="#0050A0"/>
</g>
</svg>
