<svg width="40" height="40" viewBox="0 0 40 40" fill="none" xmlns="http://www.w3.org/2000/svg">
<g clip-path="url(#clip0_236_501)">
<path d="M36.6663 10.0002H29.6996C29.8829 9.4835 29.9996 8.91683 29.9996 8.3335C29.9996 5.56683 27.7663 3.3335 24.9996 3.3335C23.2496 3.3335 21.7329 4.2335 20.8329 5.5835L19.9996 6.70016L19.1663 5.56683C18.2663 4.2335 16.7496 3.3335 14.9996 3.3335C12.2329 3.3335 9.99961 5.56683 9.99961 8.3335C9.99961 8.91683 10.1163 9.4835 10.2996 10.0002H3.34961V35.0002H36.6663V10.0002ZM24.9996 6.66683C25.9163 6.66683 26.6663 7.41683 26.6663 8.3335C26.6663 9.25016 25.9163 10.0002 24.9996 10.0002C24.0829 10.0002 23.3329 9.25016 23.3329 8.3335C23.3329 7.41683 24.0829 6.66683 24.9996 6.66683ZM14.9996 6.66683C15.9163 6.66683 16.6663 7.41683 16.6663 8.3335C16.6663 9.25016 15.9163 10.0002 14.9996 10.0002C14.0829 10.0002 13.3329 9.25016 13.3329 8.3335C13.3329 7.41683 14.0829 6.66683 14.9996 6.66683ZM33.3329 31.6668H6.66628V28.3335H33.3329V31.6668ZM33.3329 23.3335H6.66628V13.3335H15.1329L11.6663 18.0502L14.3663 20.0002L19.9996 12.3335L25.6329 20.0002L28.3329 18.0502L24.8663 13.3335H33.3329V23.3335Z" fill="#0050A0"/>
</g>
<defs>
<clipPath id="clip0_236_501">
<rect width="40" height="40" fill="white"/>
</clipPath>
</defs>
</svg>
