<svg width="120" height="120" viewBox="0 0 120 120" fill="none" xmlns="http://www.w3.org/2000/svg">
<mask id="mask0_277_655" style="mask-type:alpha" maskUnits="userSpaceOnUse" x="0" y="0" width="120" height="120">
<rect width="120" height="120" fill="#D9D9D9"/>
</mask>
<g mask="url(#mask0_277_655)">
<path d="M22.5 105C20.5 105 18.75 104.25 17.25 102.75C15.75 101.25 15 99.5 15 97.5V22.5C15 20.5 15.75 18.75 17.25 17.25C18.75 15.75 20.5 15 22.5 15H73.125L65.625 22.5H22.5V97.5H97.5V54L105 46.5V97.5C105 99.5 104.25 101.25 102.75 102.75C101.25 104.25 99.5 105 97.5 105H22.5ZM45 75V53.75L92.75 6C93.5 5.25 94.3333 4.70833 95.25 4.375C96.1667 4.04167 97.0833 3.875 98 3.875C98.9167 3.875 99.8467 4.0625 100.79 4.4375C101.733 4.8125 102.594 5.375 103.375 6.125L113.75 16.625C114.468 17.3717 115.022 18.1958 115.413 19.0975C115.804 20 116 20.9175 116 21.85C116 22.7833 115.812 23.7292 115.437 24.6875C115.062 25.6458 114.5 26.5 113.75 27.25L66.25 75H45ZM52.5 67.5H63.125L94.75 35.875L84 25.375L52.5 56.75V67.5Z" fill="#2A2A2A"/>
</g>
</svg>
