<svg width="120" height="120" viewBox="0 0 120 120" fill="none" xmlns="http://www.w3.org/2000/svg">
<mask id="mask0_277_662" style="mask-type:alpha" maskUnits="userSpaceOnUse" x="0" y="0" width="120" height="120">
<rect width="120" height="120" fill="#D9D9D9"/>
</mask>
<g mask="url(#mask0_277_662)">
<path d="M47.375 77.125L52.875 71.625L41.25 60L52.75 48.5L47.25 43L30.25 60L47.375 77.125ZM72.625 77.125L89.75 60L72.625 42.875L67.125 48.375L78.75 60L67.125 71.625L72.625 77.125ZM22.5 105C20.5 105 18.75 104.25 17.25 102.75C15.75 101.25 15 99.5 15 97.5V22.5C15 20.5 15.75 18.75 17.25 17.25C18.75 15.75 20.5 15 22.5 15H97.5C99.5 15 101.25 15.75 102.75 17.25C104.25 18.75 105 20.5 105 22.5V97.5C105 99.5 104.25 101.25 102.75 102.75C101.25 104.25 99.5 105 97.5 105H22.5ZM22.5 97.5H97.5V22.5H22.5V97.5Z" fill="#2A2A2A"/>
</g>
</svg>
