<svg width="120" height="120" viewBox="0 0 120 120" fill="none" xmlns="http://www.w3.org/2000/svg">
<mask id="mask0_277_601" style="mask-type:alpha" maskUnits="userSpaceOnUse" x="0" y="0" width="120" height="120">
<rect width="120" height="120" fill="#D9D9D9"/>
</mask>
<g mask="url(#mask0_277_601)">
<path d="M43.5 102.75L12.25 71.5C11.5 70.74 10.9375 69.9042 10.5625 68.9925C10.1875 68.0808 10 67.1375 10 66.1625C10 65.1875 10.1875 64.25 10.5625 63.35C10.9375 62.45 11.5 61.625 12.25 60.875L43.5 29.625L29.25 15.375L34.625 10L85.375 60.875C86.1642 61.625 86.7367 62.45 87.0925 63.35C87.4475 64.25 87.625 65.1875 87.625 66.1625C87.625 67.1375 87.4475 68.0808 87.0925 68.9925C86.7367 69.9042 86.1642 70.74 85.375 71.5L54.125 102.75C53.375 103.5 52.55 104.063 51.65 104.438C50.75 104.813 49.8125 105 48.8375 105C47.8625 105 46.9192 104.813 46.0075 104.438C45.0958 104.063 44.26 103.5 43.5 102.75ZM48.875 35L17.625 66.25H80.125L48.875 35ZM99.9575 105C97.1783 105 94.8242 104.034 92.895 102.102C90.965 100.171 90 97.8033 90 95C90 92.81 90.4167 90.7417 91.25 88.795C92.0833 86.8483 93.1667 85.0417 94.5 83.375L100 76.25L105.5 83.375C106.75 85.0417 107.813 86.8483 108.688 88.795C109.563 90.7417 110 92.81 110 95C110 97.8033 109.021 100.171 107.063 102.102C105.104 104.034 102.736 105 99.9575 105Z" fill="#2A2A2A"/>
</g>
</svg>
